<mxfile host="app.diagrams.net" agent="Mozilla/5.0 (Windows NT 10.0; Win64; x64) AppleWebKit/537.36 (KHTML, like Gecko) Chrome/139.0.0.0 Safari/537.36" version="28.1.0" pages="3">
  <diagram id="Ispg04Thl4qkmVf7x6hS" name="Página Cliente">
    <mxGraphModel dx="1188" dy="648" grid="1" gridSize="10" guides="1" tooltips="1" connect="1" arrows="1" fold="1" page="1" pageScale="1" pageWidth="827" pageHeight="1169" math="0" shadow="0">
      <root>
        <mxCell id="0" />
        <mxCell id="1" parent="0" />
        <mxCell id="OvQff2lwXyM1CwJxvnur-1" style="edgeStyle=orthogonalEdgeStyle;shape=connector;rounded=0;orthogonalLoop=1;jettySize=auto;html=1;exitX=0.5;exitY=1;exitDx=0;exitDy=0;entryX=0.5;entryY=0;entryDx=0;entryDy=0;shadow=0;strokeColor=#9673a6;align=center;verticalAlign=middle;fontFamily=Architects Daughter;fontSource=https%3A%2F%2Ffonts.googleapis.com%2Fcss%3Ffamily%3DArchitects%2BDaughter;fontSize=16;fontColor=default;labelBackgroundColor=default;startSize=14;endArrow=classicThin;endFill=1;endSize=13;flowAnimation=0;sourcePerimeterSpacing=14;targetPerimeterSpacing=0;fillColor=#e1d5e7;" edge="1" parent="1" source="OvQff2lwXyM1CwJxvnur-2" target="OvQff2lwXyM1CwJxvnur-6">
          <mxGeometry relative="1" as="geometry" />
        </mxCell>
        <mxCell id="OvQff2lwXyM1CwJxvnur-2" value="inserir informaçoes de login" style="rounded=0;whiteSpace=wrap;html=1;fontFamily=Architects Daughter;fontSource=https%3A%2F%2Ffonts.googleapis.com%2Fcss%3Ffamily%3DArchitects%2BDaughter;" vertex="1" parent="1">
          <mxGeometry x="285.5" y="198" width="119" height="60" as="geometry" />
        </mxCell>
        <mxCell id="OvQff2lwXyM1CwJxvnur-3" value="Sim" style="edgeLabel;html=1;align=center;verticalAlign=middle;resizable=0;points=[];fontSize=16;fontFamily=Architects Daughter;fontSource=https%3A%2F%2Ffonts.googleapis.com%2Fcss%3Ffamily%3DArchitects%2BDaughter;fontColor=default;labelBackgroundColor=default;rounded=0;" connectable="0" vertex="1" parent="1">
          <mxGeometry x="345" y="363.57894736842104" as="geometry">
            <mxPoint x="2" y="-2" as="offset" />
          </mxGeometry>
        </mxCell>
        <mxCell id="OvQff2lwXyM1CwJxvnur-4" style="edgeStyle=orthogonalEdgeStyle;shape=connector;rounded=0;orthogonalLoop=1;jettySize=auto;html=1;exitX=1;exitY=0.5;exitDx=0;exitDy=0;shadow=0;strokeColor=#9673a6;align=center;verticalAlign=middle;fontFamily=Architects Daughter;fontSource=https%3A%2F%2Ffonts.googleapis.com%2Fcss%3Ffamily%3DArchitects%2BDaughter;fontSize=16;fontColor=default;labelBackgroundColor=default;startSize=14;endArrow=classicThin;endFill=1;endSize=13;flowAnimation=0;sourcePerimeterSpacing=14;targetPerimeterSpacing=0;fillColor=#e1d5e7;" edge="1" parent="1" source="OvQff2lwXyM1CwJxvnur-6" target="OvQff2lwXyM1CwJxvnur-8">
          <mxGeometry relative="1" as="geometry" />
        </mxCell>
        <mxCell id="OvQff2lwXyM1CwJxvnur-5" value="&lt;font style=&quot;font-size: 12px;&quot;&gt;Nao&lt;/font&gt;" style="edgeLabel;html=1;align=center;verticalAlign=middle;resizable=0;points=[];fontSize=16;fontFamily=Architects Daughter;fontSource=https%3A%2F%2Ffonts.googleapis.com%2Fcss%3Ffamily%3DArchitects%2BDaughter;fontColor=default;labelBackgroundColor=default;rounded=0;" connectable="0" vertex="1" parent="OvQff2lwXyM1CwJxvnur-4">
          <mxGeometry x="0.5974" y="-2" relative="1" as="geometry">
            <mxPoint y="13" as="offset" />
          </mxGeometry>
        </mxCell>
        <mxCell id="qB8tWXOtBsgCsqkDk1pV-2" style="edgeStyle=orthogonalEdgeStyle;shape=connector;rounded=0;orthogonalLoop=1;jettySize=auto;html=1;exitX=0.5;exitY=1;exitDx=0;exitDy=0;entryX=0.5;entryY=0;entryDx=0;entryDy=0;shadow=0;strokeColor=#9673a6;align=center;verticalAlign=middle;fontFamily=Architects Daughter;fontSource=https%3A%2F%2Ffonts.googleapis.com%2Fcss%3Ffamily%3DArchitects%2BDaughter;fontSize=16;fontColor=default;labelBackgroundColor=default;startSize=14;endArrow=classicThin;endFill=1;endSize=13;flowAnimation=0;sourcePerimeterSpacing=14;targetPerimeterSpacing=0;fillColor=#e1d5e7;" edge="1" parent="1" source="OvQff2lwXyM1CwJxvnur-6" target="qB8tWXOtBsgCsqkDk1pV-1">
          <mxGeometry relative="1" as="geometry" />
        </mxCell>
        <mxCell id="OvQff2lwXyM1CwJxvnur-6" value="&lt;font style=&quot;font-size: 12px;&quot;&gt;dados&amp;nbsp;&lt;/font&gt;&lt;div&gt;&lt;font style=&quot;font-size: 12px;&quot;&gt;corretos ?&lt;/font&gt;&lt;/div&gt;" style="rhombus;whiteSpace=wrap;html=1;fontFamily=Architects Daughter;fontSource=https%3A%2F%2Ffonts.googleapis.com%2Fcss%3Ffamily%3DArchitects%2BDaughter;fontSize=16;labelBackgroundColor=none;rounded=0;fillColor=#ffe6cc;strokeColor=#d79b00;" vertex="1" parent="1">
          <mxGeometry x="285.5" y="286" width="120" height="70" as="geometry" />
        </mxCell>
        <mxCell id="OvQff2lwXyM1CwJxvnur-7" style="edgeStyle=orthogonalEdgeStyle;shape=connector;rounded=0;orthogonalLoop=1;jettySize=auto;html=1;exitX=0.5;exitY=0;exitDx=0;exitDy=0;entryX=1;entryY=0.5;entryDx=0;entryDy=0;shadow=0;strokeColor=#9673a6;align=center;verticalAlign=middle;fontFamily=Architects Daughter;fontSource=https%3A%2F%2Ffonts.googleapis.com%2Fcss%3Ffamily%3DArchitects%2BDaughter;fontSize=16;fontColor=default;labelBackgroundColor=default;startSize=14;endArrow=classicThin;endFill=1;endSize=13;flowAnimation=0;sourcePerimeterSpacing=14;targetPerimeterSpacing=0;fillColor=#e1d5e7;" edge="1" parent="1" source="OvQff2lwXyM1CwJxvnur-8" target="OvQff2lwXyM1CwJxvnur-2">
          <mxGeometry relative="1" as="geometry" />
        </mxCell>
        <mxCell id="OvQff2lwXyM1CwJxvnur-8" value="os dados iseridos estao incorretos." style="rounded=0;whiteSpace=wrap;html=1;fontFamily=Architects Daughter;fontSource=https%3A%2F%2Ffonts.googleapis.com%2Fcss%3Ffamily%3DArchitects%2BDaughter;" vertex="1" parent="1">
          <mxGeometry x="426.5" y="301" width="110" height="40" as="geometry" />
        </mxCell>
        <mxCell id="OvQff2lwXyM1CwJxvnur-11" style="edgeStyle=orthogonalEdgeStyle;shape=connector;rounded=0;orthogonalLoop=1;jettySize=auto;html=1;exitX=0.5;exitY=1;exitDx=0;exitDy=0;shadow=0;strokeColor=#9673a6;align=center;verticalAlign=middle;fontFamily=Architects Daughter;fontSource=https%3A%2F%2Ffonts.googleapis.com%2Fcss%3Ffamily%3DArchitects%2BDaughter;fontSize=16;fontColor=default;labelBackgroundColor=default;startSize=14;endArrow=classicThin;endFill=1;endSize=13;flowAnimation=0;sourcePerimeterSpacing=14;targetPerimeterSpacing=0;fillColor=#e1d5e7;entryX=0.5;entryY=0;entryDx=0;entryDy=0;" edge="1" parent="1" source="OvQff2lwXyM1CwJxvnur-12" target="OvQff2lwXyM1CwJxvnur-13">
          <mxGeometry relative="1" as="geometry" />
        </mxCell>
        <mxCell id="OvQff2lwXyM1CwJxvnur-12" value="Inicio" style="rounded=1;whiteSpace=wrap;html=1;arcSize=50;fillColor=#e1d5e7;strokeColor=#9673a6;" vertex="1" parent="1">
          <mxGeometry x="313.25" y="50" width="64.5" height="30" as="geometry" />
        </mxCell>
        <mxCell id="OvQff2lwXyM1CwJxvnur-16" style="edgeStyle=orthogonalEdgeStyle;shape=connector;rounded=0;orthogonalLoop=1;jettySize=auto;html=1;exitX=1;exitY=0.5;exitDx=0;exitDy=0;shadow=0;strokeColor=#9673a6;align=center;verticalAlign=middle;fontFamily=Architects Daughter;fontSource=https%3A%2F%2Ffonts.googleapis.com%2Fcss%3Ffamily%3DArchitects%2BDaughter;fontSize=16;fontColor=default;labelBackgroundColor=default;startSize=14;endArrow=classicThin;endFill=1;endSize=13;flowAnimation=0;sourcePerimeterSpacing=14;targetPerimeterSpacing=0;fillColor=#e1d5e7;" edge="1" parent="1" source="OvQff2lwXyM1CwJxvnur-13" target="OvQff2lwXyM1CwJxvnur-14">
          <mxGeometry relative="1" as="geometry" />
        </mxCell>
        <mxCell id="OvQff2lwXyM1CwJxvnur-17" value="não" style="edgeLabel;html=1;align=center;verticalAlign=middle;resizable=0;points=[];fontFamily=Architects Daughter;fontSource=https%3A%2F%2Ffonts.googleapis.com%2Fcss%3Ffamily%3DArchitects%2BDaughter;fontSize=16;fontColor=default;labelBackgroundColor=default;" vertex="1" connectable="0" parent="OvQff2lwXyM1CwJxvnur-16">
          <mxGeometry x="-0.2365" relative="1" as="geometry">
            <mxPoint as="offset" />
          </mxGeometry>
        </mxCell>
        <mxCell id="OvQff2lwXyM1CwJxvnur-19" style="edgeStyle=orthogonalEdgeStyle;shape=connector;rounded=0;orthogonalLoop=1;jettySize=auto;html=1;exitX=0.5;exitY=1;exitDx=0;exitDy=0;entryX=0.5;entryY=0;entryDx=0;entryDy=0;shadow=0;strokeColor=#9673a6;align=center;verticalAlign=middle;fontFamily=Architects Daughter;fontSource=https%3A%2F%2Ffonts.googleapis.com%2Fcss%3Ffamily%3DArchitects%2BDaughter;fontSize=16;fontColor=default;labelBackgroundColor=default;startSize=14;endArrow=classicThin;endFill=1;endSize=13;flowAnimation=0;sourcePerimeterSpacing=14;targetPerimeterSpacing=0;fillColor=#e1d5e7;" edge="1" parent="1" source="OvQff2lwXyM1CwJxvnur-13" target="OvQff2lwXyM1CwJxvnur-2">
          <mxGeometry relative="1" as="geometry" />
        </mxCell>
        <mxCell id="OvQff2lwXyM1CwJxvnur-13" value="&lt;span style=&quot;font-size: 12px;&quot;&gt;Já cadastrado?&lt;/span&gt;" style="rhombus;whiteSpace=wrap;html=1;fontFamily=Architects Daughter;fontSource=https%3A%2F%2Ffonts.googleapis.com%2Fcss%3Ffamily%3DArchitects%2BDaughter;fontSize=16;labelBackgroundColor=none;rounded=0;fillColor=#ffe6cc;strokeColor=#d79b00;" vertex="1" parent="1">
          <mxGeometry x="285" y="110" width="120" height="70" as="geometry" />
        </mxCell>
        <mxCell id="OvQff2lwXyM1CwJxvnur-18" style="edgeStyle=orthogonalEdgeStyle;shape=connector;rounded=0;orthogonalLoop=1;jettySize=auto;html=1;exitX=0.5;exitY=1;exitDx=0;exitDy=0;entryX=1;entryY=0.5;entryDx=0;entryDy=0;shadow=0;strokeColor=#9673a6;align=center;verticalAlign=middle;fontFamily=Architects Daughter;fontSource=https%3A%2F%2Ffonts.googleapis.com%2Fcss%3Ffamily%3DArchitects%2BDaughter;fontSize=16;fontColor=default;labelBackgroundColor=default;startSize=14;endArrow=classicThin;endFill=1;endSize=13;flowAnimation=0;sourcePerimeterSpacing=14;targetPerimeterSpacing=0;fillColor=#e1d5e7;" edge="1" parent="1" source="OvQff2lwXyM1CwJxvnur-14" target="OvQff2lwXyM1CwJxvnur-2">
          <mxGeometry relative="1" as="geometry" />
        </mxCell>
        <mxCell id="OvQff2lwXyM1CwJxvnur-14" value="inserir informaçoes de cadastro" style="rounded=0;whiteSpace=wrap;html=1;fontFamily=Architects Daughter;fontSource=https%3A%2F%2Ffonts.googleapis.com%2Fcss%3Ffamily%3DArchitects%2BDaughter;" vertex="1" parent="1">
          <mxGeometry x="446.5" y="115" width="119" height="60" as="geometry" />
        </mxCell>
        <mxCell id="qE1BlOfxyr4w-cS79VyA-2" style="edgeStyle=orthogonalEdgeStyle;shape=connector;rounded=0;orthogonalLoop=1;jettySize=auto;html=1;exitX=1;exitY=0.5;exitDx=0;exitDy=0;entryX=0;entryY=0.5;entryDx=0;entryDy=0;shadow=0;strokeColor=#9673a6;align=center;verticalAlign=middle;fontFamily=Architects Daughter;fontSource=https%3A%2F%2Ffonts.googleapis.com%2Fcss%3Ffamily%3DArchitects%2BDaughter;fontSize=16;fontColor=default;labelBackgroundColor=default;startSize=14;endArrow=classicThin;endFill=1;endSize=13;flowAnimation=0;sourcePerimeterSpacing=14;targetPerimeterSpacing=0;fillColor=#e1d5e7;" edge="1" parent="1" source="qB8tWXOtBsgCsqkDk1pV-1" target="qE1BlOfxyr4w-cS79VyA-1">
          <mxGeometry relative="1" as="geometry" />
        </mxCell>
        <mxCell id="qB8tWXOtBsgCsqkDk1pV-1" value="&lt;font style=&quot;font-size: 12px;&quot;&gt;Menu inicial&lt;/font&gt;" style="rounded=0;whiteSpace=wrap;html=1;fontFamily=Architects Daughter;fontSource=https%3A%2F%2Ffonts.googleapis.com%2Fcss%3Ffamily%3DArchitects%2BDaughter;fontSize=16;fontColor=default;labelBackgroundColor=default;" vertex="1" parent="1">
          <mxGeometry x="285" y="390" width="120" height="60" as="geometry" />
        </mxCell>
        <mxCell id="e4nRXz7vessztfBv1ulQ-2" value="&lt;span&gt;sim&lt;/span&gt;" style="text;html=1;align=center;verticalAlign=middle;resizable=0;points=[];autosize=1;strokeColor=none;fillColor=none;fontFamily=Architects Daughter;fontSource=https%3A%2F%2Ffonts.googleapis.com%2Fcss%3Ffamily%3DArchitects%2BDaughter;fontSize=16;fontColor=default;labelBackgroundColor=none;" vertex="1" parent="1">
          <mxGeometry x="345" y="168" width="50" height="30" as="geometry" />
        </mxCell>
        <mxCell id="l_KQWPlM93ROZ1bipy0Q-2" style="edgeStyle=orthogonalEdgeStyle;shape=connector;rounded=0;orthogonalLoop=1;jettySize=auto;html=1;exitX=0.5;exitY=0;exitDx=0;exitDy=0;entryX=0;entryY=0.5;entryDx=0;entryDy=0;shadow=0;strokeColor=#9673a6;align=center;verticalAlign=middle;fontFamily=Architects Daughter;fontSource=https%3A%2F%2Ffonts.googleapis.com%2Fcss%3Ffamily%3DArchitects%2BDaughter;fontSize=16;fontColor=default;labelBackgroundColor=default;startSize=14;endArrow=classicThin;endFill=1;endSize=13;flowAnimation=0;sourcePerimeterSpacing=14;targetPerimeterSpacing=0;fillColor=#e1d5e7;" edge="1" parent="1" source="qE1BlOfxyr4w-cS79VyA-1" target="iJmnXCTur2JA30C10diw-1">
          <mxGeometry relative="1" as="geometry">
            <mxPoint x="562" y="363.5799999999999" as="targetPoint" />
          </mxGeometry>
        </mxCell>
        <mxCell id="qE1BlOfxyr4w-cS79VyA-1" value="Encerrar o sistema" style="rounded=0;whiteSpace=wrap;html=1;fontFamily=Architects Daughter;fontSource=https%3A%2F%2Ffonts.googleapis.com%2Fcss%3Ffamily%3DArchitects%2BDaughter;" vertex="1" parent="1">
          <mxGeometry x="432" y="400" width="110" height="40" as="geometry" />
        </mxCell>
        <mxCell id="zi6qSs96vVQLo0XgbxPp-1" style="edgeStyle=orthogonalEdgeStyle;shape=connector;rounded=0;orthogonalLoop=1;jettySize=auto;html=1;exitX=0.75;exitY=1;exitDx=0;exitDy=0;shadow=0;strokeColor=#9673a6;align=center;verticalAlign=middle;fontFamily=Architects Daughter;fontSource=https%3A%2F%2Ffonts.googleapis.com%2Fcss%3Ffamily%3DArchitects%2BDaughter;fontSize=16;fontColor=default;labelBackgroundColor=default;startSize=14;endArrow=classicThin;endFill=1;endSize=13;flowAnimation=0;sourcePerimeterSpacing=14;targetPerimeterSpacing=0;fillColor=#e1d5e7;elbow=vertical;curved=1;" edge="1" parent="1" source="qB8tWXOtBsgCsqkDk1pV-1" target="zi6qSs96vVQLo0XgbxPp-4">
          <mxGeometry relative="1" as="geometry">
            <mxPoint x="407" y="510" as="sourcePoint" />
          </mxGeometry>
        </mxCell>
        <mxCell id="zi6qSs96vVQLo0XgbxPp-2" style="edgeStyle=orthogonalEdgeStyle;shape=connector;rounded=0;orthogonalLoop=1;jettySize=auto;html=1;exitX=0.203;exitY=1.003;exitDx=0;exitDy=0;shadow=0;strokeColor=#9673a6;align=center;verticalAlign=middle;fontFamily=Architects Daughter;fontSource=https%3A%2F%2Ffonts.googleapis.com%2Fcss%3Ffamily%3DArchitects%2BDaughter;fontSize=16;fontColor=default;labelBackgroundColor=default;startSize=14;endArrow=classicThin;endFill=1;endSize=13;flowAnimation=0;sourcePerimeterSpacing=14;targetPerimeterSpacing=0;fillColor=#e1d5e7;elbow=vertical;curved=1;exitPerimeter=0;" edge="1" parent="1" source="qB8tWXOtBsgCsqkDk1pV-1" target="zi6qSs96vVQLo0XgbxPp-3">
          <mxGeometry relative="1" as="geometry">
            <mxPoint x="287" y="510" as="sourcePoint" />
          </mxGeometry>
        </mxCell>
        <mxCell id="zi6qSs96vVQLo0XgbxPp-23" style="edgeStyle=orthogonalEdgeStyle;shape=connector;rounded=0;orthogonalLoop=1;jettySize=auto;html=1;exitX=0.5;exitY=1;exitDx=0;exitDy=0;shadow=0;strokeColor=#9673a6;align=center;verticalAlign=middle;fontFamily=Architects Daughter;fontSource=https%3A%2F%2Ffonts.googleapis.com%2Fcss%3Ffamily%3DArchitects%2BDaughter;fontSize=16;fontColor=default;labelBackgroundColor=default;startSize=14;endArrow=classicThin;endFill=1;endSize=13;flowAnimation=0;sourcePerimeterSpacing=14;targetPerimeterSpacing=0;fillColor=#e1d5e7;" edge="1" parent="1" source="zi6qSs96vVQLo0XgbxPp-3" target="zi6qSs96vVQLo0XgbxPp-20">
          <mxGeometry relative="1" as="geometry" />
        </mxCell>
        <mxCell id="zi6qSs96vVQLo0XgbxPp-3" value="laudo tecnico" style="rounded=0;whiteSpace=wrap;html=1;fontFamily=Architects Daughter;fontSource=https%3A%2F%2Ffonts.googleapis.com%2Fcss%3Ffamily%3DArchitects%2BDaughter;" vertex="1" parent="1">
          <mxGeometry x="105" y="501" width="119" height="60" as="geometry" />
        </mxCell>
        <mxCell id="zi6qSs96vVQLo0XgbxPp-12" style="edgeStyle=orthogonalEdgeStyle;shape=connector;rounded=0;orthogonalLoop=1;jettySize=auto;html=1;exitX=0.5;exitY=1;exitDx=0;exitDy=0;shadow=0;strokeColor=#9673a6;align=center;verticalAlign=middle;fontFamily=Architects Daughter;fontSource=https%3A%2F%2Ffonts.googleapis.com%2Fcss%3Ffamily%3DArchitects%2BDaughter;fontSize=16;fontColor=default;labelBackgroundColor=default;startSize=14;endArrow=classicThin;endFill=1;endSize=13;flowAnimation=0;sourcePerimeterSpacing=14;targetPerimeterSpacing=0;fillColor=#e1d5e7;" edge="1" parent="1" source="zi6qSs96vVQLo0XgbxPp-4" target="zi6qSs96vVQLo0XgbxPp-11">
          <mxGeometry relative="1" as="geometry" />
        </mxCell>
        <mxCell id="zi6qSs96vVQLo0XgbxPp-18" style="edgeStyle=orthogonalEdgeStyle;shape=connector;rounded=0;orthogonalLoop=1;jettySize=auto;html=1;exitX=1;exitY=0.5;exitDx=0;exitDy=0;entryX=0.5;entryY=0;entryDx=0;entryDy=0;shadow=0;strokeColor=#9673a6;align=center;verticalAlign=middle;fontFamily=Architects Daughter;fontSource=https%3A%2F%2Ffonts.googleapis.com%2Fcss%3Ffamily%3DArchitects%2BDaughter;fontSize=16;fontColor=default;labelBackgroundColor=default;startSize=14;endArrow=classicThin;endFill=1;endSize=13;flowAnimation=0;sourcePerimeterSpacing=14;targetPerimeterSpacing=0;fillColor=#e1d5e7;" edge="1" parent="1" source="zi6qSs96vVQLo0XgbxPp-4" target="zi6qSs96vVQLo0XgbxPp-17">
          <mxGeometry relative="1" as="geometry" />
        </mxCell>
        <mxCell id="zi6qSs96vVQLo0XgbxPp-4" value="Acessar Boletos" style="rounded=0;whiteSpace=wrap;html=1;fontFamily=Architects Daughter;fontSource=https%3A%2F%2Ffonts.googleapis.com%2Fcss%3Ffamily%3DArchitects%2BDaughter;" vertex="1" parent="1">
          <mxGeometry x="466" y="502" width="119" height="60" as="geometry" />
        </mxCell>
        <mxCell id="zi6qSs96vVQLo0XgbxPp-19" style="edgeStyle=orthogonalEdgeStyle;shape=connector;rounded=0;orthogonalLoop=1;jettySize=auto;html=1;exitX=0.5;exitY=1;exitDx=0;exitDy=0;entryX=0.5;entryY=0;entryDx=0;entryDy=0;shadow=0;strokeColor=#9673a6;align=center;verticalAlign=middle;fontFamily=Architects Daughter;fontSource=https%3A%2F%2Ffonts.googleapis.com%2Fcss%3Ffamily%3DArchitects%2BDaughter;fontSize=16;fontColor=default;labelBackgroundColor=default;startSize=14;endArrow=classicThin;endFill=1;endSize=13;flowAnimation=0;sourcePerimeterSpacing=14;targetPerimeterSpacing=0;fillColor=#e1d5e7;" edge="1" parent="1" source="zi6qSs96vVQLo0XgbxPp-7" target="zi6qSs96vVQLo0XgbxPp-16">
          <mxGeometry relative="1" as="geometry" />
        </mxCell>
        <mxCell id="zi6qSs96vVQLo0XgbxPp-7" value="Realizar agendamento" style="rounded=0;whiteSpace=wrap;html=1;fontFamily=Architects Daughter;fontSource=https%3A%2F%2Ffonts.googleapis.com%2Fcss%3Ffamily%3DArchitects%2BDaughter;" vertex="1" parent="1">
          <mxGeometry x="285.5" y="503" width="119" height="60" as="geometry" />
        </mxCell>
        <mxCell id="zi6qSs96vVQLo0XgbxPp-8" style="edgeStyle=orthogonalEdgeStyle;shape=connector;rounded=0;orthogonalLoop=1;jettySize=auto;html=1;exitX=0.5;exitY=1;exitDx=0;exitDy=0;entryX=0.495;entryY=0.047;entryDx=0;entryDy=0;entryPerimeter=0;shadow=0;strokeColor=#9673a6;align=center;verticalAlign=middle;fontFamily=Architects Daughter;fontSource=https%3A%2F%2Ffonts.googleapis.com%2Fcss%3Ffamily%3DArchitects%2BDaughter;fontSize=16;fontColor=default;labelBackgroundColor=default;startSize=14;endArrow=classicThin;endFill=1;endSize=13;flowAnimation=0;sourcePerimeterSpacing=14;targetPerimeterSpacing=0;fillColor=#e1d5e7;" edge="1" parent="1" source="qB8tWXOtBsgCsqkDk1pV-1" target="zi6qSs96vVQLo0XgbxPp-7">
          <mxGeometry relative="1" as="geometry" />
        </mxCell>
        <mxCell id="zi6qSs96vVQLo0XgbxPp-11" value="Realizar pagamento" style="rounded=0;whiteSpace=wrap;html=1;fontFamily=Architects Daughter;fontSource=https%3A%2F%2Ffonts.googleapis.com%2Fcss%3Ffamily%3DArchitects%2BDaughter;" vertex="1" parent="1">
          <mxGeometry x="466" y="590" width="119" height="60" as="geometry" />
        </mxCell>
        <mxCell id="zi6qSs96vVQLo0XgbxPp-22" style="edgeStyle=orthogonalEdgeStyle;shape=connector;rounded=0;orthogonalLoop=1;jettySize=auto;html=1;exitX=0.5;exitY=1;exitDx=0;exitDy=0;shadow=0;strokeColor=#9673a6;align=center;verticalAlign=middle;fontFamily=Architects Daughter;fontSource=https%3A%2F%2Ffonts.googleapis.com%2Fcss%3Ffamily%3DArchitects%2BDaughter;fontSize=16;fontColor=default;labelBackgroundColor=default;startSize=14;endArrow=classicThin;endFill=1;endSize=13;flowAnimation=0;sourcePerimeterSpacing=14;targetPerimeterSpacing=0;fillColor=#e1d5e7;" edge="1" parent="1" source="zi6qSs96vVQLo0XgbxPp-16" target="zi6qSs96vVQLo0XgbxPp-21">
          <mxGeometry relative="1" as="geometry" />
        </mxCell>
        <mxCell id="zi6qSs96vVQLo0XgbxPp-16" value="Selecionar data/horario" style="rounded=0;whiteSpace=wrap;html=1;fontFamily=Architects Daughter;fontSource=https%3A%2F%2Ffonts.googleapis.com%2Fcss%3Ffamily%3DArchitects%2BDaughter;" vertex="1" parent="1">
          <mxGeometry x="286" y="588" width="119" height="60" as="geometry" />
        </mxCell>
        <mxCell id="zi6qSs96vVQLo0XgbxPp-17" value="Acessar Historico de pagamentos" style="rounded=0;whiteSpace=wrap;html=1;fontFamily=Architects Daughter;fontSource=https%3A%2F%2Ffonts.googleapis.com%2Fcss%3Ffamily%3DArchitects%2BDaughter;" vertex="1" parent="1">
          <mxGeometry x="611" y="590" width="119" height="60" as="geometry" />
        </mxCell>
        <mxCell id="zi6qSs96vVQLo0XgbxPp-20" value="Acessar Historico de laudos técnicos" style="rounded=0;whiteSpace=wrap;html=1;fontFamily=Architects Daughter;fontSource=https%3A%2F%2Ffonts.googleapis.com%2Fcss%3Ffamily%3DArchitects%2BDaughter;" vertex="1" parent="1">
          <mxGeometry x="105" y="588" width="119" height="60" as="geometry" />
        </mxCell>
        <mxCell id="rzhSHmz0hwyqtRBXg6d8-2" style="edgeStyle=orthogonalEdgeStyle;shape=connector;rounded=0;orthogonalLoop=1;jettySize=auto;html=1;exitX=0.5;exitY=1;exitDx=0;exitDy=0;shadow=0;strokeColor=#9673a6;align=center;verticalAlign=middle;fontFamily=Architects Daughter;fontSource=https%3A%2F%2Ffonts.googleapis.com%2Fcss%3Ffamily%3DArchitects%2BDaughter;fontSize=16;fontColor=default;labelBackgroundColor=default;startSize=14;endArrow=classicThin;endFill=1;endSize=13;flowAnimation=0;sourcePerimeterSpacing=14;targetPerimeterSpacing=0;fillColor=#e1d5e7;" edge="1" parent="1" source="zi6qSs96vVQLo0XgbxPp-21" target="rzhSHmz0hwyqtRBXg6d8-1">
          <mxGeometry relative="1" as="geometry" />
        </mxCell>
        <mxCell id="zi6qSs96vVQLo0XgbxPp-21" value="Selecionar Tipo Vistoria/Funcionario" style="rounded=0;whiteSpace=wrap;html=1;fontFamily=Architects Daughter;fontSource=https%3A%2F%2Ffonts.googleapis.com%2Fcss%3Ffamily%3DArchitects%2BDaughter;" vertex="1" parent="1">
          <mxGeometry x="286" y="673" width="119" height="60" as="geometry" />
        </mxCell>
        <mxCell id="iJmnXCTur2JA30C10diw-1" value="Fim" style="rounded=1;whiteSpace=wrap;html=1;arcSize=50;fillColor=#e1d5e7;strokeColor=#9673a6;" vertex="1" parent="1">
          <mxGeometry x="536.5" y="356" width="64.5" height="30" as="geometry" />
        </mxCell>
        <mxCell id="rzhSHmz0hwyqtRBXg6d8-1" value="Emissão do Boleto" style="rounded=0;whiteSpace=wrap;html=1;fontFamily=Architects Daughter;fontSource=https%3A%2F%2Ffonts.googleapis.com%2Fcss%3Ffamily%3DArchitects%2BDaughter;" vertex="1" parent="1">
          <mxGeometry x="285" y="760" width="119" height="60" as="geometry" />
        </mxCell>
      </root>
    </mxGraphModel>
  </diagram>
  <diagram id="EtbZzBtb2gUm-ICHvhXB" name="Página Gerente">
    <mxGraphModel dx="2593" dy="1413" grid="1" gridSize="10" guides="1" tooltips="1" connect="1" arrows="1" fold="1" page="1" pageScale="1" pageWidth="827" pageHeight="1169" math="0" shadow="0">
      <root>
        <mxCell id="0" />
        <mxCell id="1" parent="0" />
        <mxCell id="Xe4aPNVXIJ0RuY3oZBCx-18" style="edgeStyle=orthogonalEdgeStyle;shape=connector;rounded=0;orthogonalLoop=1;jettySize=auto;html=1;exitX=1;exitY=0.5;exitDx=0;exitDy=0;entryX=0;entryY=0.5;entryDx=0;entryDy=0;shadow=0;strokeColor=#9673a6;align=center;verticalAlign=middle;fontFamily=Architects Daughter;fontSource=https%3A%2F%2Ffonts.googleapis.com%2Fcss%3Ffamily%3DArchitects%2BDaughter;fontSize=16;fontColor=default;labelBackgroundColor=default;startSize=14;endArrow=classicThin;endFill=1;endSize=13;flowAnimation=0;sourcePerimeterSpacing=14;targetPerimeterSpacing=0;fillColor=#e1d5e7;" edge="1" parent="1" source="Xe4aPNVXIJ0RuY3oZBCx-19" target="Xe4aPNVXIJ0RuY3oZBCx-22">
          <mxGeometry relative="1" as="geometry" />
        </mxCell>
        <mxCell id="Xe4aPNVXIJ0RuY3oZBCx-19" value="&lt;font style=&quot;font-size: 12px;&quot;&gt;Menu inicial&lt;/font&gt;" style="rounded=0;whiteSpace=wrap;html=1;fontFamily=Architects Daughter;fontSource=https%3A%2F%2Ffonts.googleapis.com%2Fcss%3Ffamily%3DArchitects%2BDaughter;fontSize=16;fontColor=default;labelBackgroundColor=default;" vertex="1" parent="1">
          <mxGeometry x="281" y="410" width="120" height="60" as="geometry" />
        </mxCell>
        <mxCell id="Xe4aPNVXIJ0RuY3oZBCx-21" style="edgeStyle=orthogonalEdgeStyle;shape=connector;rounded=0;orthogonalLoop=1;jettySize=auto;html=1;exitX=0.5;exitY=0;exitDx=0;exitDy=0;entryX=0;entryY=0.5;entryDx=0;entryDy=0;shadow=0;strokeColor=#9673a6;align=center;verticalAlign=middle;fontFamily=Architects Daughter;fontSource=https%3A%2F%2Ffonts.googleapis.com%2Fcss%3Ffamily%3DArchitects%2BDaughter;fontSize=16;fontColor=default;labelBackgroundColor=default;startSize=14;endArrow=classicThin;endFill=1;endSize=13;flowAnimation=0;sourcePerimeterSpacing=14;targetPerimeterSpacing=0;fillColor=#e1d5e7;" edge="1" parent="1" source="Xe4aPNVXIJ0RuY3oZBCx-22" target="tagHClpc6VoCCYX8Blt_-2">
          <mxGeometry relative="1" as="geometry">
            <mxPoint x="558" y="383.5799999999999" as="targetPoint" />
          </mxGeometry>
        </mxCell>
        <mxCell id="Xe4aPNVXIJ0RuY3oZBCx-22" value="Encerrar o sistema" style="rounded=0;whiteSpace=wrap;html=1;fontFamily=Architects Daughter;fontSource=https%3A%2F%2Ffonts.googleapis.com%2Fcss%3Ffamily%3DArchitects%2BDaughter;" vertex="1" parent="1">
          <mxGeometry x="428" y="420" width="110" height="40" as="geometry" />
        </mxCell>
        <mxCell id="Xe4aPNVXIJ0RuY3oZBCx-24" style="edgeStyle=orthogonalEdgeStyle;shape=connector;rounded=0;orthogonalLoop=1;jettySize=auto;html=1;exitX=0.75;exitY=1;exitDx=0;exitDy=0;shadow=0;strokeColor=#9673a6;align=center;verticalAlign=middle;fontFamily=Architects Daughter;fontSource=https%3A%2F%2Ffonts.googleapis.com%2Fcss%3Ffamily%3DArchitects%2BDaughter;fontSize=16;fontColor=default;labelBackgroundColor=default;startSize=14;endArrow=classicThin;endFill=1;endSize=13;flowAnimation=0;sourcePerimeterSpacing=14;targetPerimeterSpacing=0;fillColor=#e1d5e7;elbow=vertical;curved=1;" edge="1" parent="1" source="Xe4aPNVXIJ0RuY3oZBCx-19" target="Xe4aPNVXIJ0RuY3oZBCx-30">
          <mxGeometry relative="1" as="geometry">
            <mxPoint x="403" y="530" as="sourcePoint" />
          </mxGeometry>
        </mxCell>
        <mxCell id="Xe4aPNVXIJ0RuY3oZBCx-25" style="edgeStyle=orthogonalEdgeStyle;shape=connector;rounded=0;orthogonalLoop=1;jettySize=auto;html=1;exitX=0.203;exitY=1.003;exitDx=0;exitDy=0;shadow=0;strokeColor=#9673a6;align=center;verticalAlign=middle;fontFamily=Architects Daughter;fontSource=https%3A%2F%2Ffonts.googleapis.com%2Fcss%3Ffamily%3DArchitects%2BDaughter;fontSize=16;fontColor=default;labelBackgroundColor=default;startSize=14;endArrow=classicThin;endFill=1;endSize=13;flowAnimation=0;sourcePerimeterSpacing=14;targetPerimeterSpacing=0;fillColor=#e1d5e7;elbow=vertical;curved=1;exitPerimeter=0;" edge="1" parent="1" source="Xe4aPNVXIJ0RuY3oZBCx-19" target="Xe4aPNVXIJ0RuY3oZBCx-27">
          <mxGeometry relative="1" as="geometry">
            <mxPoint x="283" y="530" as="sourcePoint" />
          </mxGeometry>
        </mxCell>
        <mxCell id="Xe4aPNVXIJ0RuY3oZBCx-26" style="edgeStyle=orthogonalEdgeStyle;shape=connector;rounded=0;orthogonalLoop=1;jettySize=auto;html=1;exitX=0.5;exitY=1;exitDx=0;exitDy=0;shadow=0;strokeColor=#9673a6;align=center;verticalAlign=middle;fontFamily=Architects Daughter;fontSource=https%3A%2F%2Ffonts.googleapis.com%2Fcss%3Ffamily%3DArchitects%2BDaughter;fontSize=16;fontColor=default;labelBackgroundColor=default;startSize=14;endArrow=classicThin;endFill=1;endSize=13;flowAnimation=0;sourcePerimeterSpacing=14;targetPerimeterSpacing=0;fillColor=#e1d5e7;" edge="1" parent="1" source="Xe4aPNVXIJ0RuY3oZBCx-27" target="Xe4aPNVXIJ0RuY3oZBCx-38">
          <mxGeometry relative="1" as="geometry" />
        </mxCell>
        <mxCell id="Xe4aPNVXIJ0RuY3oZBCx-27" value="&amp;nbsp;Gerenciar Cadastros" style="rounded=0;whiteSpace=wrap;html=1;fontFamily=Architects Daughter;fontSource=https%3A%2F%2Ffonts.googleapis.com%2Fcss%3Ffamily%3DArchitects%2BDaughter;" vertex="1" parent="1">
          <mxGeometry x="245" y="522" width="119" height="60" as="geometry" />
        </mxCell>
        <mxCell id="Xe4aPNVXIJ0RuY3oZBCx-28" style="edgeStyle=orthogonalEdgeStyle;shape=connector;rounded=0;orthogonalLoop=1;jettySize=auto;html=1;exitX=0.5;exitY=1;exitDx=0;exitDy=0;shadow=0;strokeColor=#9673a6;align=center;verticalAlign=middle;fontFamily=Architects Daughter;fontSource=https%3A%2F%2Ffonts.googleapis.com%2Fcss%3Ffamily%3DArchitects%2BDaughter;fontSize=16;fontColor=default;labelBackgroundColor=default;startSize=14;endArrow=classicThin;endFill=1;endSize=13;flowAnimation=0;sourcePerimeterSpacing=14;targetPerimeterSpacing=0;fillColor=#e1d5e7;" edge="1" parent="1" source="Xe4aPNVXIJ0RuY3oZBCx-30" target="Xe4aPNVXIJ0RuY3oZBCx-34">
          <mxGeometry relative="1" as="geometry" />
        </mxCell>
        <mxCell id="Xe4aPNVXIJ0RuY3oZBCx-29" style="edgeStyle=orthogonalEdgeStyle;shape=connector;rounded=0;orthogonalLoop=1;jettySize=auto;html=1;exitX=0;exitY=0.5;exitDx=0;exitDy=0;entryX=0.5;entryY=0;entryDx=0;entryDy=0;shadow=0;strokeColor=#9673a6;align=center;verticalAlign=middle;fontFamily=Architects Daughter;fontSource=https%3A%2F%2Ffonts.googleapis.com%2Fcss%3Ffamily%3DArchitects%2BDaughter;fontSize=16;fontColor=default;labelBackgroundColor=default;startSize=14;endArrow=classicThin;endFill=1;endSize=13;flowAnimation=0;sourcePerimeterSpacing=14;targetPerimeterSpacing=0;fillColor=#e1d5e7;" edge="1" parent="1" source="Xe4aPNVXIJ0RuY3oZBCx-27" target="Xe4aPNVXIJ0RuY3oZBCx-37">
          <mxGeometry relative="1" as="geometry" />
        </mxCell>
        <mxCell id="Xe4aPNVXIJ0RuY3oZBCx-30" value="Gerenciar relatorios" style="rounded=0;whiteSpace=wrap;html=1;fontFamily=Architects Daughter;fontSource=https%3A%2F%2Ffonts.googleapis.com%2Fcss%3Ffamily%3DArchitects%2BDaughter;" vertex="1" parent="1">
          <mxGeometry x="421" y="522" width="119" height="60" as="geometry" />
        </mxCell>
        <mxCell id="Xe4aPNVXIJ0RuY3oZBCx-34" value="Quadro Geral Financeiro" style="rounded=0;whiteSpace=wrap;html=1;fontFamily=Architects Daughter;fontSource=https%3A%2F%2Ffonts.googleapis.com%2Fcss%3Ffamily%3DArchitects%2BDaughter;" vertex="1" parent="1">
          <mxGeometry x="421" y="610" width="119" height="60" as="geometry" />
        </mxCell>
        <mxCell id="Hh7Eslx7lTcaOeXjPvwa-5" style="edgeStyle=orthogonalEdgeStyle;shape=connector;rounded=0;orthogonalLoop=1;jettySize=auto;html=1;exitX=0.5;exitY=1;exitDx=0;exitDy=0;entryX=0.5;entryY=0;entryDx=0;entryDy=0;shadow=0;strokeColor=#9673a6;align=center;verticalAlign=middle;fontFamily=Architects Daughter;fontSource=https%3A%2F%2Ffonts.googleapis.com%2Fcss%3Ffamily%3DArchitects%2BDaughter;fontSize=16;fontColor=default;labelBackgroundColor=default;startSize=14;endArrow=classicThin;endFill=1;endSize=13;flowAnimation=0;sourcePerimeterSpacing=14;targetPerimeterSpacing=0;fillColor=#e1d5e7;" edge="1" parent="1" source="Xe4aPNVXIJ0RuY3oZBCx-37" target="Hh7Eslx7lTcaOeXjPvwa-4">
          <mxGeometry relative="1" as="geometry" />
        </mxCell>
        <mxCell id="Xe4aPNVXIJ0RuY3oZBCx-37" value="Gerenciar Funcionarios" style="rounded=0;whiteSpace=wrap;html=1;fontFamily=Architects Daughter;fontSource=https%3A%2F%2Ffonts.googleapis.com%2Fcss%3Ffamily%3DArchitects%2BDaughter;" vertex="1" parent="1">
          <mxGeometry x="84" y="609" width="119" height="60" as="geometry" />
        </mxCell>
        <mxCell id="Hh7Eslx7lTcaOeXjPvwa-7" style="edgeStyle=orthogonalEdgeStyle;shape=connector;rounded=0;orthogonalLoop=1;jettySize=auto;html=1;exitX=0.5;exitY=1;exitDx=0;exitDy=0;entryX=0.5;entryY=0;entryDx=0;entryDy=0;shadow=0;strokeColor=#9673a6;align=center;verticalAlign=middle;fontFamily=Architects Daughter;fontSource=https%3A%2F%2Ffonts.googleapis.com%2Fcss%3Ffamily%3DArchitects%2BDaughter;fontSize=16;fontColor=default;labelBackgroundColor=default;startSize=14;endArrow=classicThin;endFill=1;endSize=13;flowAnimation=0;sourcePerimeterSpacing=14;targetPerimeterSpacing=0;fillColor=#e1d5e7;" edge="1" parent="1" source="Xe4aPNVXIJ0RuY3oZBCx-38" target="Hh7Eslx7lTcaOeXjPvwa-6">
          <mxGeometry relative="1" as="geometry" />
        </mxCell>
        <mxCell id="Xe4aPNVXIJ0RuY3oZBCx-38" value="Gerenciar Clientes" style="rounded=0;whiteSpace=wrap;html=1;fontFamily=Architects Daughter;fontSource=https%3A%2F%2Ffonts.googleapis.com%2Fcss%3Ffamily%3DArchitects%2BDaughter;" vertex="1" parent="1">
          <mxGeometry x="245" y="609" width="119" height="60" as="geometry" />
        </mxCell>
        <mxCell id="x-H7cIs6424NO2u7fUoQ-1" style="edgeStyle=orthogonalEdgeStyle;shape=connector;rounded=0;orthogonalLoop=1;jettySize=auto;html=1;exitX=0.5;exitY=1;exitDx=0;exitDy=0;entryX=0.5;entryY=0;entryDx=0;entryDy=0;shadow=0;strokeColor=#9673a6;align=center;verticalAlign=middle;fontFamily=Architects Daughter;fontSource=https%3A%2F%2Ffonts.googleapis.com%2Fcss%3Ffamily%3DArchitects%2BDaughter;fontSize=16;fontColor=default;labelBackgroundColor=default;startSize=14;endArrow=classicThin;endFill=1;endSize=13;flowAnimation=0;sourcePerimeterSpacing=14;targetPerimeterSpacing=0;fillColor=#e1d5e7;" edge="1" parent="1" source="x-H7cIs6424NO2u7fUoQ-2" target="x-H7cIs6424NO2u7fUoQ-6">
          <mxGeometry relative="1" as="geometry" />
        </mxCell>
        <mxCell id="x-H7cIs6424NO2u7fUoQ-2" value="inserir informaçoes de login" style="rounded=0;whiteSpace=wrap;html=1;fontFamily=Architects Daughter;fontSource=https%3A%2F%2Ffonts.googleapis.com%2Fcss%3Ffamily%3DArchitects%2BDaughter;" vertex="1" parent="1">
          <mxGeometry x="281" y="225" width="119" height="60" as="geometry" />
        </mxCell>
        <mxCell id="x-H7cIs6424NO2u7fUoQ-3" value="Sim" style="edgeLabel;html=1;align=center;verticalAlign=middle;resizable=0;points=[];fontSize=16;fontFamily=Architects Daughter;fontSource=https%3A%2F%2Ffonts.googleapis.com%2Fcss%3Ffamily%3DArchitects%2BDaughter;fontColor=default;labelBackgroundColor=default;rounded=0;" connectable="0" vertex="1" parent="1">
          <mxGeometry x="339" y="382.57894736842104" as="geometry" />
        </mxCell>
        <mxCell id="x-H7cIs6424NO2u7fUoQ-4" style="edgeStyle=orthogonalEdgeStyle;shape=connector;rounded=0;orthogonalLoop=1;jettySize=auto;html=1;exitX=1;exitY=0.5;exitDx=0;exitDy=0;shadow=0;strokeColor=#9673a6;align=center;verticalAlign=middle;fontFamily=Architects Daughter;fontSource=https%3A%2F%2Ffonts.googleapis.com%2Fcss%3Ffamily%3DArchitects%2BDaughter;fontSize=16;fontColor=default;labelBackgroundColor=default;startSize=14;endArrow=classicThin;endFill=1;endSize=13;flowAnimation=0;sourcePerimeterSpacing=14;targetPerimeterSpacing=0;fillColor=#e1d5e7;" edge="1" parent="1" source="x-H7cIs6424NO2u7fUoQ-6" target="x-H7cIs6424NO2u7fUoQ-8">
          <mxGeometry relative="1" as="geometry" />
        </mxCell>
        <mxCell id="x-H7cIs6424NO2u7fUoQ-5" value="&lt;font style=&quot;font-size: 12px;&quot;&gt;Nao&lt;/font&gt;" style="edgeLabel;html=1;align=center;verticalAlign=middle;resizable=0;points=[];fontSize=16;fontFamily=Architects Daughter;fontSource=https%3A%2F%2Ffonts.googleapis.com%2Fcss%3Ffamily%3DArchitects%2BDaughter;fontColor=default;labelBackgroundColor=default;rounded=0;" connectable="0" vertex="1" parent="x-H7cIs6424NO2u7fUoQ-4">
          <mxGeometry x="0.5974" y="-2" relative="1" as="geometry">
            <mxPoint y="13" as="offset" />
          </mxGeometry>
        </mxCell>
        <mxCell id="x-H7cIs6424NO2u7fUoQ-16" style="edgeStyle=orthogonalEdgeStyle;shape=connector;rounded=0;orthogonalLoop=1;jettySize=auto;html=1;exitX=0.5;exitY=1;exitDx=0;exitDy=0;entryX=0.5;entryY=0;entryDx=0;entryDy=0;shadow=0;strokeColor=#9673a6;align=center;verticalAlign=middle;fontFamily=Architects Daughter;fontSource=https%3A%2F%2Ffonts.googleapis.com%2Fcss%3Ffamily%3DArchitects%2BDaughter;fontSize=16;fontColor=default;labelBackgroundColor=default;startSize=14;endArrow=classicThin;endFill=1;endSize=13;flowAnimation=0;sourcePerimeterSpacing=14;targetPerimeterSpacing=0;fillColor=#e1d5e7;" edge="1" parent="1" source="x-H7cIs6424NO2u7fUoQ-6" target="Xe4aPNVXIJ0RuY3oZBCx-19">
          <mxGeometry relative="1" as="geometry" />
        </mxCell>
        <mxCell id="x-H7cIs6424NO2u7fUoQ-6" value="&lt;font style=&quot;font-size: 12px;&quot;&gt;dados&amp;nbsp;&lt;/font&gt;&lt;div&gt;&lt;font style=&quot;font-size: 12px;&quot;&gt;corretos ?&lt;/font&gt;&lt;/div&gt;" style="rhombus;whiteSpace=wrap;html=1;fontFamily=Architects Daughter;fontSource=https%3A%2F%2Ffonts.googleapis.com%2Fcss%3Ffamily%3DArchitects%2BDaughter;fontSize=16;fontColor=default;labelBackgroundColor=none;rounded=0;" vertex="1" parent="1">
          <mxGeometry x="279" y="305" width="120" height="70" as="geometry" />
        </mxCell>
        <mxCell id="x-H7cIs6424NO2u7fUoQ-7" style="edgeStyle=orthogonalEdgeStyle;shape=connector;rounded=0;orthogonalLoop=1;jettySize=auto;html=1;exitX=0.5;exitY=0;exitDx=0;exitDy=0;entryX=1;entryY=0.5;entryDx=0;entryDy=0;shadow=0;strokeColor=#9673a6;align=center;verticalAlign=middle;fontFamily=Architects Daughter;fontSource=https%3A%2F%2Ffonts.googleapis.com%2Fcss%3Ffamily%3DArchitects%2BDaughter;fontSize=16;fontColor=default;labelBackgroundColor=default;startSize=14;endArrow=classicThin;endFill=1;endSize=13;flowAnimation=0;sourcePerimeterSpacing=14;targetPerimeterSpacing=0;fillColor=#e1d5e7;" edge="1" parent="1" source="x-H7cIs6424NO2u7fUoQ-8" target="x-H7cIs6424NO2u7fUoQ-2">
          <mxGeometry relative="1" as="geometry" />
        </mxCell>
        <mxCell id="x-H7cIs6424NO2u7fUoQ-8" value="os dados iseridos estao incorretos." style="rounded=0;whiteSpace=wrap;html=1;fontFamily=Architects Daughter;fontSource=https%3A%2F%2Ffonts.googleapis.com%2Fcss%3Ffamily%3DArchitects%2BDaughter;" vertex="1" parent="1">
          <mxGeometry x="422" y="320" width="110" height="40" as="geometry" />
        </mxCell>
        <mxCell id="x-H7cIs6424NO2u7fUoQ-10" value="&lt;font style=&quot;font-size: 9px;&quot;&gt;Informaçoes de login gerados pela area administrativa&lt;/font&gt;" style="shape=note;whiteSpace=wrap;html=1;backgroundOutline=1;fontColor=#000000;darkOpacity=0.05;fillColor=#FFF9B2;strokeColor=none;fillStyle=solid;direction=west;gradientDirection=north;gradientColor=#FFF2A1;shadow=1;size=20;pointerEvents=1;fontFamily=Architects Daughter;fontSource=https%3A%2F%2Ffonts.googleapis.com%2Fcss%3Ffamily%3DArchitects%2BDaughter;fontSize=16;labelBackgroundColor=none;rounded=0;" vertex="1" parent="1">
          <mxGeometry x="139" y="196" width="100" height="70" as="geometry" />
        </mxCell>
        <mxCell id="x-H7cIs6424NO2u7fUoQ-11" value="" style="endArrow=none;dashed=1;html=1;rounded=0;shadow=0;strokeColor=#9673a6;align=center;verticalAlign=middle;fontFamily=Architects Daughter;fontSource=https%3A%2F%2Ffonts.googleapis.com%2Fcss%3Ffamily%3DArchitects%2BDaughter;fontSize=16;fontColor=default;labelBackgroundColor=default;edgeStyle=orthogonalEdgeStyle;startSize=14;endSize=13;flowAnimation=0;sourcePerimeterSpacing=14;targetPerimeterSpacing=0;fillColor=#e1d5e7;exitX=0;exitY=0.5;exitDx=0;exitDy=0;exitPerimeter=0;entryX=0;entryY=0.5;entryDx=0;entryDy=0;curved=1;" edge="1" parent="1" source="x-H7cIs6424NO2u7fUoQ-10" target="x-H7cIs6424NO2u7fUoQ-2">
          <mxGeometry width="50" height="50" relative="1" as="geometry">
            <mxPoint x="299" y="380" as="sourcePoint" />
            <mxPoint x="349" y="330" as="targetPoint" />
          </mxGeometry>
        </mxCell>
        <mxCell id="x-H7cIs6424NO2u7fUoQ-12" style="edgeStyle=orthogonalEdgeStyle;shape=connector;rounded=0;orthogonalLoop=1;jettySize=auto;html=1;exitX=0.5;exitY=1;exitDx=0;exitDy=0;shadow=0;strokeColor=#9673a6;align=center;verticalAlign=middle;fontFamily=Architects Daughter;fontSource=https%3A%2F%2Ffonts.googleapis.com%2Fcss%3Ffamily%3DArchitects%2BDaughter;fontSize=16;fontColor=default;labelBackgroundColor=default;startSize=14;endArrow=classicThin;endFill=1;endSize=13;flowAnimation=0;sourcePerimeterSpacing=14;targetPerimeterSpacing=0;fillColor=#e1d5e7;" edge="1" parent="1" source="tagHClpc6VoCCYX8Blt_-1" target="x-H7cIs6424NO2u7fUoQ-2">
          <mxGeometry relative="1" as="geometry">
            <mxPoint x="340" y="196" as="sourcePoint" />
          </mxGeometry>
        </mxCell>
        <mxCell id="tagHClpc6VoCCYX8Blt_-1" value="Inicio" style="rounded=1;whiteSpace=wrap;html=1;arcSize=50;fillColor=#e1d5e7;strokeColor=#9673a6;" vertex="1" parent="1">
          <mxGeometry x="308.25" y="160" width="64.5" height="30" as="geometry" />
        </mxCell>
        <mxCell id="tagHClpc6VoCCYX8Blt_-2" value="Fim" style="rounded=1;whiteSpace=wrap;html=1;arcSize=50;fillColor=#e1d5e7;strokeColor=#9673a6;" vertex="1" parent="1">
          <mxGeometry x="537.5" y="375" width="64.5" height="30" as="geometry" />
        </mxCell>
        <mxCell id="Hh7Eslx7lTcaOeXjPvwa-4" value="Manter Funcionarios" style="rounded=0;whiteSpace=wrap;html=1;fontFamily=Architects Daughter;fontSource=https%3A%2F%2Ffonts.googleapis.com%2Fcss%3Ffamily%3DArchitects%2BDaughter;" vertex="1" parent="1">
          <mxGeometry x="84" y="699" width="119" height="60" as="geometry" />
        </mxCell>
        <mxCell id="Hh7Eslx7lTcaOeXjPvwa-6" value="Manter Clientes" style="rounded=0;whiteSpace=wrap;html=1;fontFamily=Architects Daughter;fontSource=https%3A%2F%2Ffonts.googleapis.com%2Fcss%3Ffamily%3DArchitects%2BDaughter;" vertex="1" parent="1">
          <mxGeometry x="244" y="699" width="119" height="60" as="geometry" />
        </mxCell>
      </root>
    </mxGraphModel>
  </diagram>
  <diagram id="crbZMnnPajNt2PgbQTH0" name="Página Funcionarios">
    <mxGraphModel dx="1426" dy="777" grid="1" gridSize="10" guides="1" tooltips="1" connect="1" arrows="1" fold="1" page="1" pageScale="1" pageWidth="827" pageHeight="1169" math="0" shadow="0">
      <root>
        <mxCell id="0" />
        <mxCell id="1" parent="0" />
        <mxCell id="-n544gQmKyShyZaLw-PZ-1" style="edgeStyle=orthogonalEdgeStyle;shape=connector;rounded=0;orthogonalLoop=1;jettySize=auto;html=1;exitX=1;exitY=0.5;exitDx=0;exitDy=0;entryX=0;entryY=0.5;entryDx=0;entryDy=0;shadow=0;strokeColor=#9673a6;align=center;verticalAlign=middle;fontFamily=Architects Daughter;fontSource=https%3A%2F%2Ffonts.googleapis.com%2Fcss%3Ffamily%3DArchitects%2BDaughter;fontSize=16;fontColor=default;labelBackgroundColor=default;startSize=14;endArrow=classicThin;endFill=1;endSize=13;flowAnimation=0;sourcePerimeterSpacing=14;targetPerimeterSpacing=0;fillColor=#e1d5e7;" edge="1" parent="1" source="-n544gQmKyShyZaLw-PZ-2" target="-n544gQmKyShyZaLw-PZ-4">
          <mxGeometry relative="1" as="geometry" />
        </mxCell>
        <mxCell id="-n544gQmKyShyZaLw-PZ-2" value="&lt;font style=&quot;font-size: 12px;&quot;&gt;Quadro Atendimentos&lt;/font&gt;" style="rounded=0;whiteSpace=wrap;html=1;fontFamily=Architects Daughter;fontSource=https%3A%2F%2Ffonts.googleapis.com%2Fcss%3Ffamily%3DArchitects%2BDaughter;fontSize=16;fontColor=default;labelBackgroundColor=default;" vertex="1" parent="1">
          <mxGeometry x="352" y="300" width="120" height="60" as="geometry" />
        </mxCell>
        <mxCell id="-n544gQmKyShyZaLw-PZ-3" style="edgeStyle=orthogonalEdgeStyle;shape=connector;rounded=0;orthogonalLoop=1;jettySize=auto;html=1;exitX=0.5;exitY=0;exitDx=0;exitDy=0;entryX=0;entryY=0.5;entryDx=0;entryDy=0;shadow=0;strokeColor=#9673a6;align=center;verticalAlign=middle;fontFamily=Architects Daughter;fontSource=https%3A%2F%2Ffonts.googleapis.com%2Fcss%3Ffamily%3DArchitects%2BDaughter;fontSize=16;fontColor=default;labelBackgroundColor=default;startSize=14;endArrow=classicThin;endFill=1;endSize=13;flowAnimation=0;sourcePerimeterSpacing=14;targetPerimeterSpacing=0;fillColor=#e1d5e7;" edge="1" parent="1" source="-n544gQmKyShyZaLw-PZ-4" target="-n544gQmKyShyZaLw-PZ-30">
          <mxGeometry relative="1" as="geometry">
            <mxPoint x="629" y="273.5799999999999" as="targetPoint" />
          </mxGeometry>
        </mxCell>
        <mxCell id="-n544gQmKyShyZaLw-PZ-4" value="Encerrar o sistema" style="rounded=0;whiteSpace=wrap;html=1;fontFamily=Architects Daughter;fontSource=https%3A%2F%2Ffonts.googleapis.com%2Fcss%3Ffamily%3DArchitects%2BDaughter;" vertex="1" parent="1">
          <mxGeometry x="499" y="310" width="110" height="40" as="geometry" />
        </mxCell>
        <mxCell id="-n544gQmKyShyZaLw-PZ-5" style="edgeStyle=orthogonalEdgeStyle;shape=connector;rounded=0;orthogonalLoop=1;jettySize=auto;html=1;exitX=0.75;exitY=1;exitDx=0;exitDy=0;shadow=0;strokeColor=#9673a6;align=center;verticalAlign=middle;fontFamily=Architects Daughter;fontSource=https%3A%2F%2Ffonts.googleapis.com%2Fcss%3Ffamily%3DArchitects%2BDaughter;fontSize=16;fontColor=default;labelBackgroundColor=default;startSize=14;endArrow=classicThin;endFill=1;endSize=13;flowAnimation=0;sourcePerimeterSpacing=14;targetPerimeterSpacing=0;fillColor=#e1d5e7;elbow=vertical;curved=1;entryX=0.5;entryY=0;entryDx=0;entryDy=0;" edge="1" parent="1" source="-n544gQmKyShyZaLw-PZ-2" target="-n544gQmKyShyZaLw-PZ-16">
          <mxGeometry relative="1" as="geometry">
            <mxPoint x="474" y="420" as="sourcePoint" />
            <mxPoint x="551.5" y="412" as="targetPoint" />
          </mxGeometry>
        </mxCell>
        <mxCell id="-n544gQmKyShyZaLw-PZ-10" style="edgeStyle=orthogonalEdgeStyle;shape=connector;rounded=0;orthogonalLoop=1;jettySize=auto;html=1;exitX=0.25;exitY=1;exitDx=0;exitDy=0;entryX=0.5;entryY=0;entryDx=0;entryDy=0;shadow=0;strokeColor=#9673a6;align=center;verticalAlign=middle;fontFamily=Architects Daughter;fontSource=https%3A%2F%2Ffonts.googleapis.com%2Fcss%3Ffamily%3DArchitects%2BDaughter;fontSize=16;fontColor=default;labelBackgroundColor=default;startSize=14;endArrow=classicThin;endFill=1;endSize=13;flowAnimation=0;sourcePerimeterSpacing=14;targetPerimeterSpacing=0;fillColor=#e1d5e7;" edge="1" parent="1" source="-n544gQmKyShyZaLw-PZ-2" target="-n544gQmKyShyZaLw-PZ-14">
          <mxGeometry relative="1" as="geometry">
            <mxPoint x="316" y="442" as="sourcePoint" />
          </mxGeometry>
        </mxCell>
        <mxCell id="-n544gQmKyShyZaLw-PZ-13" style="edgeStyle=orthogonalEdgeStyle;shape=connector;rounded=0;orthogonalLoop=1;jettySize=auto;html=1;exitX=0.5;exitY=1;exitDx=0;exitDy=0;entryX=0.5;entryY=0;entryDx=0;entryDy=0;shadow=0;strokeColor=#9673a6;align=center;verticalAlign=middle;fontFamily=Architects Daughter;fontSource=https%3A%2F%2Ffonts.googleapis.com%2Fcss%3Ffamily%3DArchitects%2BDaughter;fontSize=16;fontColor=default;labelBackgroundColor=default;startSize=14;endArrow=classicThin;endFill=1;endSize=13;flowAnimation=0;sourcePerimeterSpacing=14;targetPerimeterSpacing=0;fillColor=#e1d5e7;" edge="1" parent="1" source="-n544gQmKyShyZaLw-PZ-14" target="-n544gQmKyShyZaLw-PZ-31">
          <mxGeometry relative="1" as="geometry" />
        </mxCell>
        <mxCell id="-n544gQmKyShyZaLw-PZ-14" value="Vistorias designadas" style="rounded=0;whiteSpace=wrap;html=1;fontFamily=Architects Daughter;fontSource=https%3A%2F%2Ffonts.googleapis.com%2Fcss%3Ffamily%3DArchitects%2BDaughter;" vertex="1" parent="1">
          <mxGeometry x="322" y="415" width="119" height="60" as="geometry" />
        </mxCell>
        <mxCell id="-n544gQmKyShyZaLw-PZ-16" value="Relatorio diario" style="rounded=0;whiteSpace=wrap;html=1;fontFamily=Architects Daughter;fontSource=https%3A%2F%2Ffonts.googleapis.com%2Fcss%3Ffamily%3DArchitects%2BDaughter;" vertex="1" parent="1">
          <mxGeometry x="494.5" y="415" width="119" height="60" as="geometry" />
        </mxCell>
        <mxCell id="-n544gQmKyShyZaLw-PZ-17" style="edgeStyle=orthogonalEdgeStyle;shape=connector;rounded=0;orthogonalLoop=1;jettySize=auto;html=1;exitX=0.5;exitY=1;exitDx=0;exitDy=0;entryX=0.5;entryY=0;entryDx=0;entryDy=0;shadow=0;strokeColor=#9673a6;align=center;verticalAlign=middle;fontFamily=Architects Daughter;fontSource=https%3A%2F%2Ffonts.googleapis.com%2Fcss%3Ffamily%3DArchitects%2BDaughter;fontSize=16;fontColor=default;labelBackgroundColor=default;startSize=14;endArrow=classicThin;endFill=1;endSize=13;flowAnimation=0;sourcePerimeterSpacing=14;targetPerimeterSpacing=0;fillColor=#e1d5e7;" edge="1" parent="1" source="-n544gQmKyShyZaLw-PZ-18" target="-n544gQmKyShyZaLw-PZ-23">
          <mxGeometry relative="1" as="geometry" />
        </mxCell>
        <mxCell id="-n544gQmKyShyZaLw-PZ-18" value="inserir informaçoes de login" style="rounded=0;whiteSpace=wrap;html=1;fontFamily=Architects Daughter;fontSource=https%3A%2F%2Ffonts.googleapis.com%2Fcss%3Ffamily%3DArchitects%2BDaughter;" vertex="1" parent="1">
          <mxGeometry x="352" y="115" width="119" height="60" as="geometry" />
        </mxCell>
        <mxCell id="-n544gQmKyShyZaLw-PZ-19" value="Sim" style="edgeLabel;html=1;align=center;verticalAlign=middle;resizable=0;points=[];fontSize=16;fontFamily=Architects Daughter;fontSource=https%3A%2F%2Ffonts.googleapis.com%2Fcss%3Ffamily%3DArchitects%2BDaughter;fontColor=default;labelBackgroundColor=default;rounded=0;" connectable="0" vertex="1" parent="1">
          <mxGeometry x="410" y="272.57894736842104" as="geometry" />
        </mxCell>
        <mxCell id="-n544gQmKyShyZaLw-PZ-20" style="edgeStyle=orthogonalEdgeStyle;shape=connector;rounded=0;orthogonalLoop=1;jettySize=auto;html=1;exitX=1;exitY=0.5;exitDx=0;exitDy=0;shadow=0;strokeColor=#9673a6;align=center;verticalAlign=middle;fontFamily=Architects Daughter;fontSource=https%3A%2F%2Ffonts.googleapis.com%2Fcss%3Ffamily%3DArchitects%2BDaughter;fontSize=16;fontColor=default;labelBackgroundColor=default;startSize=14;endArrow=classicThin;endFill=1;endSize=13;flowAnimation=0;sourcePerimeterSpacing=14;targetPerimeterSpacing=0;fillColor=#e1d5e7;" edge="1" parent="1" source="-n544gQmKyShyZaLw-PZ-23" target="-n544gQmKyShyZaLw-PZ-25">
          <mxGeometry relative="1" as="geometry" />
        </mxCell>
        <mxCell id="-n544gQmKyShyZaLw-PZ-21" value="&lt;font style=&quot;font-size: 12px;&quot;&gt;Nao&lt;/font&gt;" style="edgeLabel;html=1;align=center;verticalAlign=middle;resizable=0;points=[];fontSize=16;fontFamily=Architects Daughter;fontSource=https%3A%2F%2Ffonts.googleapis.com%2Fcss%3Ffamily%3DArchitects%2BDaughter;fontColor=default;labelBackgroundColor=default;rounded=0;" connectable="0" vertex="1" parent="-n544gQmKyShyZaLw-PZ-20">
          <mxGeometry x="0.5974" y="-2" relative="1" as="geometry">
            <mxPoint y="13" as="offset" />
          </mxGeometry>
        </mxCell>
        <mxCell id="-n544gQmKyShyZaLw-PZ-22" style="edgeStyle=orthogonalEdgeStyle;shape=connector;rounded=0;orthogonalLoop=1;jettySize=auto;html=1;exitX=0.5;exitY=1;exitDx=0;exitDy=0;entryX=0.5;entryY=0;entryDx=0;entryDy=0;shadow=0;strokeColor=#9673a6;align=center;verticalAlign=middle;fontFamily=Architects Daughter;fontSource=https%3A%2F%2Ffonts.googleapis.com%2Fcss%3Ffamily%3DArchitects%2BDaughter;fontSize=16;fontColor=default;labelBackgroundColor=default;startSize=14;endArrow=classicThin;endFill=1;endSize=13;flowAnimation=0;sourcePerimeterSpacing=14;targetPerimeterSpacing=0;fillColor=#e1d5e7;" edge="1" parent="1" source="-n544gQmKyShyZaLw-PZ-23" target="-n544gQmKyShyZaLw-PZ-2">
          <mxGeometry relative="1" as="geometry" />
        </mxCell>
        <mxCell id="-n544gQmKyShyZaLw-PZ-23" value="&lt;font style=&quot;font-size: 12px;&quot;&gt;dados&amp;nbsp;&lt;/font&gt;&lt;div&gt;&lt;font style=&quot;font-size: 12px;&quot;&gt;corretos ?&lt;/font&gt;&lt;/div&gt;" style="rhombus;whiteSpace=wrap;html=1;fontFamily=Architects Daughter;fontSource=https%3A%2F%2Ffonts.googleapis.com%2Fcss%3Ffamily%3DArchitects%2BDaughter;fontSize=16;fontColor=default;labelBackgroundColor=none;rounded=0;" vertex="1" parent="1">
          <mxGeometry x="350" y="195" width="120" height="70" as="geometry" />
        </mxCell>
        <mxCell id="-n544gQmKyShyZaLw-PZ-24" style="edgeStyle=orthogonalEdgeStyle;shape=connector;rounded=0;orthogonalLoop=1;jettySize=auto;html=1;exitX=0.5;exitY=0;exitDx=0;exitDy=0;entryX=1;entryY=0.5;entryDx=0;entryDy=0;shadow=0;strokeColor=#9673a6;align=center;verticalAlign=middle;fontFamily=Architects Daughter;fontSource=https%3A%2F%2Ffonts.googleapis.com%2Fcss%3Ffamily%3DArchitects%2BDaughter;fontSize=16;fontColor=default;labelBackgroundColor=default;startSize=14;endArrow=classicThin;endFill=1;endSize=13;flowAnimation=0;sourcePerimeterSpacing=14;targetPerimeterSpacing=0;fillColor=#e1d5e7;" edge="1" parent="1" source="-n544gQmKyShyZaLw-PZ-25" target="-n544gQmKyShyZaLw-PZ-18">
          <mxGeometry relative="1" as="geometry" />
        </mxCell>
        <mxCell id="-n544gQmKyShyZaLw-PZ-25" value="os dados iseridos estao incorretos." style="rounded=0;whiteSpace=wrap;html=1;fontFamily=Architects Daughter;fontSource=https%3A%2F%2Ffonts.googleapis.com%2Fcss%3Ffamily%3DArchitects%2BDaughter;" vertex="1" parent="1">
          <mxGeometry x="493" y="210" width="110" height="40" as="geometry" />
        </mxCell>
        <mxCell id="-n544gQmKyShyZaLw-PZ-26" value="&lt;font style=&quot;font-size: 9px;&quot;&gt;Informaçoes de login gerados pela area administrativa&lt;/font&gt;" style="shape=note;whiteSpace=wrap;html=1;backgroundOutline=1;fontColor=#000000;darkOpacity=0.05;fillColor=#FFF9B2;strokeColor=none;fillStyle=solid;direction=west;gradientDirection=north;gradientColor=#FFF2A1;shadow=1;size=20;pointerEvents=1;fontFamily=Architects Daughter;fontSource=https%3A%2F%2Ffonts.googleapis.com%2Fcss%3Ffamily%3DArchitects%2BDaughter;fontSize=16;labelBackgroundColor=none;rounded=0;" vertex="1" parent="1">
          <mxGeometry x="210" y="86" width="100" height="70" as="geometry" />
        </mxCell>
        <mxCell id="-n544gQmKyShyZaLw-PZ-27" value="" style="endArrow=none;dashed=1;html=1;rounded=0;shadow=0;strokeColor=#9673a6;align=center;verticalAlign=middle;fontFamily=Architects Daughter;fontSource=https%3A%2F%2Ffonts.googleapis.com%2Fcss%3Ffamily%3DArchitects%2BDaughter;fontSize=16;fontColor=default;labelBackgroundColor=default;edgeStyle=orthogonalEdgeStyle;startSize=14;endSize=13;flowAnimation=0;sourcePerimeterSpacing=14;targetPerimeterSpacing=0;fillColor=#e1d5e7;exitX=0;exitY=0.5;exitDx=0;exitDy=0;exitPerimeter=0;entryX=0;entryY=0.5;entryDx=0;entryDy=0;curved=1;" edge="1" parent="1" source="-n544gQmKyShyZaLw-PZ-26" target="-n544gQmKyShyZaLw-PZ-18">
          <mxGeometry width="50" height="50" relative="1" as="geometry">
            <mxPoint x="370" y="270" as="sourcePoint" />
            <mxPoint x="420" y="220" as="targetPoint" />
          </mxGeometry>
        </mxCell>
        <mxCell id="-n544gQmKyShyZaLw-PZ-28" style="edgeStyle=orthogonalEdgeStyle;shape=connector;rounded=0;orthogonalLoop=1;jettySize=auto;html=1;exitX=0.5;exitY=1;exitDx=0;exitDy=0;shadow=0;strokeColor=#9673a6;align=center;verticalAlign=middle;fontFamily=Architects Daughter;fontSource=https%3A%2F%2Ffonts.googleapis.com%2Fcss%3Ffamily%3DArchitects%2BDaughter;fontSize=16;fontColor=default;labelBackgroundColor=default;startSize=14;endArrow=classicThin;endFill=1;endSize=13;flowAnimation=0;sourcePerimeterSpacing=14;targetPerimeterSpacing=0;fillColor=#e1d5e7;" edge="1" parent="1" source="-n544gQmKyShyZaLw-PZ-29" target="-n544gQmKyShyZaLw-PZ-18">
          <mxGeometry relative="1" as="geometry">
            <mxPoint x="411" y="86" as="sourcePoint" />
          </mxGeometry>
        </mxCell>
        <mxCell id="-n544gQmKyShyZaLw-PZ-29" value="Inicio" style="rounded=1;whiteSpace=wrap;html=1;arcSize=50;fillColor=#e1d5e7;strokeColor=#9673a6;" vertex="1" parent="1">
          <mxGeometry x="379.25" y="50" width="64.5" height="30" as="geometry" />
        </mxCell>
        <mxCell id="-n544gQmKyShyZaLw-PZ-30" value="Fim" style="rounded=1;whiteSpace=wrap;html=1;arcSize=50;fillColor=#e1d5e7;strokeColor=#9673a6;" vertex="1" parent="1">
          <mxGeometry x="608.5" y="265" width="64.5" height="30" as="geometry" />
        </mxCell>
        <mxCell id="fLDpuDNivkwNgisbElt1-2" style="edgeStyle=orthogonalEdgeStyle;shape=connector;rounded=0;orthogonalLoop=1;jettySize=auto;html=1;exitX=0.5;exitY=1;exitDx=0;exitDy=0;shadow=0;strokeColor=#9673a6;align=center;verticalAlign=middle;fontFamily=Architects Daughter;fontSource=https%3A%2F%2Ffonts.googleapis.com%2Fcss%3Ffamily%3DArchitects%2BDaughter;fontSize=16;fontColor=default;labelBackgroundColor=default;startSize=14;endArrow=classicThin;endFill=1;endSize=13;flowAnimation=0;sourcePerimeterSpacing=14;targetPerimeterSpacing=0;fillColor=#e1d5e7;" edge="1" parent="1" source="-n544gQmKyShyZaLw-PZ-31" target="fLDpuDNivkwNgisbElt1-1">
          <mxGeometry relative="1" as="geometry" />
        </mxCell>
        <mxCell id="-n544gQmKyShyZaLw-PZ-31" value="Realizar Vistoria" style="rounded=0;whiteSpace=wrap;html=1;fontFamily=Architects Daughter;fontSource=https%3A%2F%2Ffonts.googleapis.com%2Fcss%3Ffamily%3DArchitects%2BDaughter;" vertex="1" parent="1">
          <mxGeometry x="322" y="505" width="119" height="60" as="geometry" />
        </mxCell>
        <mxCell id="fLDpuDNivkwNgisbElt1-1" value="Adiciona Status veiculo" style="rounded=0;whiteSpace=wrap;html=1;fontFamily=Architects Daughter;fontSource=https%3A%2F%2Ffonts.googleapis.com%2Fcss%3Ffamily%3DArchitects%2BDaughter;" vertex="1" parent="1">
          <mxGeometry x="322" y="594" width="119" height="60" as="geometry" />
        </mxCell>
      </root>
    </mxGraphModel>
  </diagram>
</mxfile>
